<svg xmlns="http://www.w3.org/2000/svg"><symbol viewBox="0 0 150 58" id="logo" xmlns="http://www.w3.org/2000/svg"><defs><style>.acls-1{fill:#fff;fill-rule:evenodd}</style></defs><path id="alogo" class="acls-1" d="M65.207 67.024h6v-5.081h-6v5.081zM64 62.661a1.819 1.819 0 0 1 .359-1.308 1.965 1.965 0 0 1 1.344-.346h5.021a1.937 1.937 0 0 1 1.337.346 1.848 1.848 0 0 1 .351 1.308v3.686a1.842 1.842 0 0 1-.351 1.307 1.935 1.935 0 0 1-1.338.346H65.7a1.962 1.962 0 0 1-1.344-.346A1.814 1.814 0 0 1 64 66.347v-3.686zm18.211-.718h-5.674v5.081h5.674v-2.045h-2.935v-.895h4.143v2.263a1.812 1.812 0 0 1-.358 1.307A1.953 1.953 0 0 1 81.72 68h-4.69a1.951 1.951 0 0 1-1.341-.346 1.812 1.812 0 0 1-.359-1.307v-3.686a1.817 1.817 0 0 1 .359-1.307 1.954 1.954 0 0 1 1.341-.346h4.69a2.04 2.04 0 0 1 1.326.328 1.6 1.6 0 0 1 .372 1.231v.176l-1.207.231v-1.031zm14.427 0h-5.674v5.081h5.674v-2.045H93.7v-.895h4.143v2.263a1.812 1.812 0 0 1-.359 1.307 1.953 1.953 0 0 1-1.338.346h-4.69a1.95 1.95 0 0 1-1.341-.346 1.81 1.81 0 0 1-.358-1.307v-3.686a1.815 1.815 0 0 1 .358-1.307 1.953 1.953 0 0 1 1.341-.346h4.69a2.039 2.039 0 0 1 1.327.328 1.6 1.6 0 0 1 .373 1.231v.176l-1.208.231v-1.031zm5.248 3.442h3.9l-1.951-3.577zM99.26 68l3.961-6.992h1.291L108.543 68h-1.334l-.927-1.72h-4.9l-.928 1.72H99.26zm10.979 0v-6.992h1.208v6.016h5.491V68h-6.7zm9.63-.976h6v-5.081h-6v5.081zm-1.207-4.363a1.822 1.822 0 0 1 .358-1.308 1.965 1.965 0 0 1 1.344-.346h5.021a1.938 1.938 0 0 1 1.337.346 1.845 1.845 0 0 1 .351 1.308v3.686a1.839 1.839 0 0 1-.351 1.307 1.935 1.935 0 0 1-1.337.346h-5.021a1.962 1.962 0 0 1-1.344-.346 1.817 1.817 0 0 1-.358-1.307v-3.686zm15.792-.744H130.3v2.423h4.157a.925.925 0 0 0 .611-.155.741.741 0 0 0 .175-.572v-.97a.732.732 0 0 0-.182-.573.933.933 0 0 0-.6-.155M129.089 68v-6.992h5.832a1.756 1.756 0 0 1 1.163.318 1.312 1.312 0 0 1 .364 1.036v1.559a1.314 1.314 0 0 1-.364 1.037 1.752 1.752 0 0 1-1.163.317H130.3V68h-1.208zm15.051-6.084h-4.157v2.424h4.157a.925.925 0 0 0 .611-.155.737.737 0 0 0 .176-.572v-.97a.724.724 0 0 0-.184-.573.932.932 0 0 0-.6-.155M138.776 68v-6.992h5.83a1.755 1.755 0 0 1 1.164.318 1.316 1.316 0 0 1 .364 1.036v1.559a1.317 1.317 0 0 1-.364 1.037 1.749 1.749 0 0 1-1.162.317h-4.625V68h-1.207zm9.217-4.012h2.994v1.022h-2.994v-1.022zM152.448 68v-6.992h.758l5.421 4.675a6.846 6.846 0 0 1 .83.88 10.359 10.359 0 0 1-.114-1.721v-3.834h1.124V68h-.675l-5.575-4.865c-.206-.18-.323-.285-.35-.312a2.282 2.282 0 0 1-.381-.474 11.548 11.548 0 0 1 .085 1.531V68h-1.123zm13.366 0v-3.049l-3.68-3.943h1.5l2.837 3.117 2.711-3.117h1.474l-3.637 3.917V68h-1.208zm10.334-6.044V68h-1.206v-6.044h-3.315v-.948h7.85v.948h-3.329zm8.525 0V68h-1.207v-6.044h-3.315v-.948H188v.948h-3.327zM133.5 58a21.08 21.08 0 0 0 8.2-1.495 15.87 15.87 0 0 0 3.925-2.517c.047.2.094.37.143.522a13.3 13.3 0 0 0 1.012 2.2l.22.29h14l-.577-1.238a16.4 16.4 0 0 1-1.217-3.268 17.9 17.9 0 0 1-.272-3.555V34.854a16.38 16.38 0 0 0-.993-5.415 10.745 10.745 0 0 0-2.83-4.518 12.634 12.634 0 0 0-6.235-2.986 51.962 51.962 0 0 0-9.335-.677 38.608 38.608 0 0 0-6.773.563 16.223 16.223 0 0 0-5.1 1.655 12.03 12.03 0 0 0-4.051 3.569 15.387 15.387 0 0 0-2.138 5.537l-.231 1.11 13.989 1.524.257-.765a4.742 4.742 0 0 1 1.561-2.5 7.712 7.712 0 0 1 4.14-.869c1.677 0 2.4.369 2.707.678a3.135 3.135 0 0 1 .641 1.955c-1.3.51-2.558.934-3.733 1.265-1.383.389-4.473 1.082-9.183 2.058-4.217.867-7.063 1.191-8.7 3.046a10.373 10.373 0 0 0-2.469 7.087 10.155 10.155 0 0 0 3.4 7.741C126.075 56.96 129.32 58 133.5 58m51.513-35.97l-5.94 17.49-5.725-17.49h-15.381L172 57h14l14-34.97h-14.989zM121.3 23.175a14.07 14.07 0 0 0-6.594-1.918 8.267 8.267 0 0 0-5.081 1.561A9.426 9.426 0 0 0 108 25v-3H94v35h14V45c0-5.235 1.133-8.051 2.326-9.87a3.353 3.353 0 0 1 3.039-1.668 8.6 8.6 0 0 1 3.171.887l.9.386 4.678-11.12zM50 10v12.029L64 22v35h16V22h14V10zm94.562 31.429v.662a7.948 7.948 0 0 1-.652 3.5 5.377 5.377 0 0 1-2.193 2.169 6.775 6.775 0 0 1-3.454.93 3.434 3.434 0 0 1-2.4-.716 2.27 2.27 0 0 1-.72-1.771 2.315 2.315 0 0 1 .758-1.679c.315-.316 1.313-.974 4.445-1.834a60.79 60.79 0 0 0 4.219-1.265" transform="translate(-50 -10)"/></symbol></svg>