<svg id="Layer_1" xmlns="http://www.w3.org/2000/svg" viewBox="0 0 22 22"><style>.st0{fill-rule:evenodd;clip-rule:evenodd;fill:#222}</style><path class="st0" d="M8.7 14.8l-5.1 5.1h3.8c.6 0 1 .5 1 1v.1c0 .5-.4 1-1 1H1c-.5 0-1-.5-1-1v-6.4c0-.6.5-1 1-1h.1c.5 0 1 .4 1 1v3.8l5.1-5.1c.4-.4 1.1-.4 1.5 0 .4.5.4 1.1 0 1.5zm4.6-7.6l5.1-5.1h-3.8c-.6 0-1-.5-1-1V1c0-.5.4-1 1-1H21c.5 0 1 .5 1 1v6.4c0 .6-.5 1-1 1h-.1c-.5 0-1-.4-1-1V3.6l-5.1 5.1c-.4.4-1.1.4-1.5 0-.4-.5-.4-1.1 0-1.5zm1.5 6.1l5.1 5.1v-3.8c0-.6.5-1 1-1h.1c.5 0 1 .4 1 1V21c0 .5-.5 1-1 1h-6.4c-.6 0-1-.5-1-1v-.1c0-.5.4-1 1-1h3.8l-5.1-5.1c-.4-.4-.4-1.1 0-1.5.5-.4 1.1-.4 1.5 0zM7.2 8.7L2.1 3.6v3.8c0 .6-.5 1-1 1H1c-.5 0-1-.4-1-1V1c0-.5.5-1 1-1h6.4c.6 0 1 .5 1 1v.1c0 .5-.4 1-1 1H3.6l5.1 5.1c.4.4.4 1.1 0 1.5-.5.4-1.1.4-1.5 0z"/></svg>