<svg xmlns="http://www.w3.org/2000/svg" width="62" height="18" viewBox="0 0 62 18"><defs><style>.cls-1{fill:#de302f;fill-rule:evenodd}</style></defs><path id="tgn_logo" class="cls-1" d="M69.562 661.779l-.34.109a3.919 3.919 0 0 1-1.065.222.383.383 0 0 1-.391-.168 1.553 1.553 0 0 1-.078-.669v-3.132h2.05v-3.285h-2.05V651l-4.316 2.2v1.661H62v3.285h1.373v3.107a6.461 6.461 0 0 0 .341 2.453 2.455 2.455 0 0 0 1.1 1.215 4.731 4.731 0 0 0 2.189.388 12.58 12.58 0 0 0 2.644-.309l.255-.055zm7.968-2a2.036 2.036 0 0 1-.4 1.385 1.3 1.3 0 0 1-1.914.02 2.029 2.029 0 0 1-.377-1.359 2.446 2.446 0 0 1 .36-1.521 1.119 1.119 0 0 1 .916-.41 1.263 1.263 0 0 1 .99.462 2.107 2.107 0 0 1 .422 1.423m4.306 4.482v-9.406h-4.065v.919a3.825 3.825 0 0 0-.953-.724 4.374 4.374 0 0 0-2.006-.413 4.031 4.031 0 0 0-3.087 1.275 5.157 5.157 0 0 0-1.176 3.631 5.678 5.678 0 0 0 .9 3.339 3.983 3.983 0 0 0 3.385 1.812 4.238 4.238 0 0 0 2-.487 3.447 3.447 0 0 0 .671-.478v.75a1.974 1.974 0 0 1-.321 1.295 1.305 1.305 0 0 1-.991.334 1.519 1.519 0 0 1-.871-.232.9.9 0 0 1-.3-.528l-.051-.188-4.116-.466-.018.3c-.012.21-.019.38-.019.507a3.122 3.122 0 0 0 1.2 2.561c.79.63 2.165.936 4.205.936a10.642 10.642 0 0 0 2.339-.234 4.372 4.372 0 0 0 1.754-.793 3.943 3.943 0 0 0 1.116-1.434 4.3 4.3 0 0 0 .417-1.86zm10.945-8.621a3.486 3.486 0 0 0-2.632-1 4.477 4.477 0 0 0-2.075.446 4.687 4.687 0 0 0-1.15.874v-1.1h-4.05v10.231h4.306v-4.924a2.622 2.622 0 0 1 .355-1.645 1.074 1.074 0 0 1 .875-.4.932.932 0 0 1 .735.28 1.714 1.714 0 0 1 .265 1.1v5.6h4.325v-6.424a4.242 4.242 0 0 0-.954-3.021m1.984 9.445h4.563V660.8h-4.56v4.286zm15.5-9.564a3.489 3.489 0 0 0-2.632-1 4.478 4.478 0 0 0-2.075.446 4.775 4.775 0 0 0-1.149.874v-1.1h-4.05v10.231h4.307v-4.924a2.635 2.635 0 0 1 .354-1.645 1.074 1.074 0 0 1 .875-.4.932.932 0 0 1 .735.28 1.713 1.713 0 0 1 .265 1.1v5.6h4.324v-6.424a4.241 4.241 0 0 0-.954-3.022m8.959 6.2a1.442 1.442 0 0 1-2.2-.01 2.65 2.65 0 0 1-.457-1.724 2.615 2.615 0 0 1 .462-1.708 1.4 1.4 0 0 1 1.124-.521 1.342 1.342 0 0 1 1.069.512 2.585 2.585 0 0 1 .453 1.682 2.749 2.749 0 0 1-.449 1.769m3.5-5.3a6.829 6.829 0 0 0-8.885-.267 5.108 5.108 0 0 0-1.589 3.813 5.028 5.028 0 0 0 1.881 4.058 6.107 6.107 0 0 0 3.97 1.242 6.015 6.015 0 0 0 4.316-1.5 5.518 5.518 0 0 0 .3-7.384" transform="translate(-62 -651)"/></svg>