<svg xmlns="http://www.w3.org/2000/svg" width="16" height="12" viewBox="0 0 16 12">
<defs>
    <style>
      .cls-1 {
        fill: #222;
        fill-rule: evenodd;
      }
    </style>
  </defs>
  <path id="menu_icon" class="cls-1" d="M1283,134h2a1,1,0,0,1,0,2h-2A1,1,0,0,1,1283,134Zm0,5h2a1,1,0,0,1,0,2h-2A1,1,0,0,1,1283,139Zm0,5h2a1,1,0,0,1,0,2h-2A1,1,0,0,1,1283,144Zm5-10h9a1,1,0,0,1,0,2h-9A1,1,0,0,1,1288,134Zm0,5h9a1,1,0,0,1,0,2h-9A1,1,0,0,1,1288,139Zm0,5h9a1,1,0,0,1,0,2h-9A1,1,0,0,1,1288,144Z" transform="translate(-1282 -134)"/>
</svg>
