<svg id="mark" xmlns="http://www.w3.org/2000/svg" width="124" height="110" viewBox="0 0 124 110">
  <defs>
    <style>
      .cls-1 {
        fill: none;
        stroke: #de302f;
        stroke-width: 4px;
      }

      .cls-1, .cls-2 {
        fill-rule: evenodd;
      }

      .cls-2 {
        fill: #de302f;
      }
    </style>
  </defs>
  <path class="cls-1" d="M1113.41,411H1006.78a6.656,6.656,0,0,1-5.75-10.221c2.32-4.072,49.2-85.442,53.21-92.387a6.612,6.612,0,0,1,11.55,0c2.94,5,50.06,86.68,53.33,92.6A6.617,6.617,0,0,1,1113.41,411Z" transform="translate(-998 -303)"/>
  <path id="Rounded_Rectangle_8" data-name="Rounded Rectangle 8" class="cls-2" d="M1060,332a6,6,0,0,1,6,6v38a6,6,0,0,1-12,0V338A6,6,0,0,1,1060,332Zm0,55a6,6,0,1,1-6,6A6,6,0,0,1,1060,387Z" transform="translate(-998 -303)"/>
</svg>
