<?xml version="1.0" encoding="utf-8"?>
<!-- Generator: Adobe Illustrator 23.0.1, SVG Export Plug-In . SVG Version: 6.00 Build 0)  -->
<svg version="1.1" id="Layer_1" xmlns="http://www.w3.org/2000/svg" xmlns:xlink="http://www.w3.org/1999/xlink" x="0px" y="0px"
	 viewBox="0 0 22 22" style="enable-background:new 0 0 22 22;" xml:space="preserve">
<style type="text/css">
	.st0{fill-rule:evenodd;clip-rule:evenodd;fill:#222222;}
</style>
<path class="st0" d="M8.7,14.8l-5.1,5.1h3.8c0.6,0,1,0.5,1,1V21c0,0.5-0.4,1-1,1H1c-0.5,0-1-0.5-1-1v-6.4c0-0.6,0.5-1,1-1h0.1
	c0.5,0,1,0.4,1,1v3.8l5.1-5.1c0.4-0.4,1.1-0.4,1.5,0C9.1,13.8,9.1,14.4,8.7,14.8z"/>
<path class="st0" d="M13.3,7.2l5.1-5.1h-3.8c-0.6,0-1-0.5-1-1V1c0-0.5,0.4-1,1-1H21c0.5,0,1,0.5,1,1v6.4c0,0.6-0.5,1-1,1h-0.1
	c-0.5,0-1-0.4-1-1V3.6l-5.1,5.1c-0.4,0.4-1.1,0.4-1.5,0C12.9,8.2,12.9,7.6,13.3,7.2z"/>
<path class="st0" d="M14.8,13.3l5.1,5.1v-3.8c0-0.6,0.5-1,1-1H21c0.5,0,1,0.4,1,1V21c0,0.5-0.5,1-1,1h-6.4c-0.6,0-1-0.5-1-1v-0.1
	c0-0.5,0.4-1,1-1h3.8l-5.1-5.1c-0.4-0.4-0.4-1.1,0-1.5C13.8,12.9,14.4,12.9,14.8,13.3z"/>
<path class="st0" d="M7.2,8.7L2.1,3.6v3.8c0,0.6-0.5,1-1,1H1c-0.5,0-1-0.4-1-1V1c0-0.5,0.5-1,1-1h6.4c0.6,0,1,0.5,1,1v0.1
	c0,0.5-0.4,1-1,1H3.6l5.1,5.1c0.4,0.4,0.4,1.1,0,1.5C8.2,9.1,7.6,9.1,7.2,8.7z"/>
</svg>
