<svg id="plus-label" xmlns="http://www.w3.org/2000/svg" width="50" height="20" viewBox="0 0 50 20">
  <path fill="currentColor" fill-rule="evenodd" d="M0,0H40.143A9.929,9.929,0,0,1,50,10a9.93,9.93,0,0,1-9.857,10H0"/>
  <path fill="#fff" fill-rule="evenodd" d="M9.854,6.929a3.02,3.02,0,0,0-2.031-.591H5.352v7.139H7.28V11.108H7.822a2.847,2.847,0,0,0,2-.652,2.391,2.391,0,0,0,.706-1.848A2.107,2.107,0,0,0,9.854,6.929ZM7.28,7.9h0.5a0.675,0.675,0,0,1,.8.723,0.886,0.886,0,0,1-.256.674,0.96,0.96,0,0,1-.691.244H7.28V7.9Zm10.228,5.581V11.919H14.759V6.338H12.83v7.139h4.678ZM23.37,6.338v4.18a1.818,1.818,0,0,1-.266,1.111,1.221,1.221,0,0,1-1.692,0,1.715,1.715,0,0,1-.283-1.1V6.338H19.19v4.341a2.828,2.828,0,0,0,.784,2.149,3.126,3.126,0,0,0,2.244.747,3.156,3.156,0,0,0,2.288-.769,2.882,2.882,0,0,0,.794-2.17v-4.3H23.37ZM32.1,10.11a3.261,3.261,0,0,0-1.282-.891,8.276,8.276,0,0,1-1.179-.605,0.472,0.472,0,0,1-.217-0.376A0.4,0.4,0,0,1,29.59,7.91a0.9,0.9,0,0,1,.547-0.132,4.282,4.282,0,0,1,1.728.459l0.591-1.489A5.536,5.536,0,0,0,30.2,6.235a3.164,3.164,0,0,0-1.973.552A1.83,1.83,0,0,0,27.5,8.325a2.269,2.269,0,0,0,.169.913,1.888,1.888,0,0,0,.518.684,4.55,4.55,0,0,0,1.047.615q0.771,0.347.95,0.459a0.939,0.939,0,0,1,.259.222,0.421,0.421,0,0,1,.081.256,0.458,0.458,0,0,1-.2.383,1.062,1.062,0,0,1-.63.149,4.275,4.275,0,0,1-1.094-.159,5.743,5.743,0,0,1-1.148-.442v1.719a4.435,4.435,0,0,0,1.006.349,6.027,6.027,0,0,0,1.2.1,3.6,3.6,0,0,0,1.489-.286,2.205,2.205,0,0,0,.972-0.8,2.106,2.106,0,0,0,.337-1.179A1.935,1.935,0,0,0,32.1,10.11Zm6.4,0a3.262,3.262,0,0,0-1.282-.891,8.276,8.276,0,0,1-1.179-.605,0.472,0.472,0,0,1-.217-0.376,0.4,0.4,0,0,1,.171-0.327,0.9,0.9,0,0,1,.547-0.132,4.282,4.282,0,0,1,1.728.459l0.591-1.489a5.536,5.536,0,0,0-2.261-.513,3.164,3.164,0,0,0-1.973.552A1.83,1.83,0,0,0,33.9,8.325a2.267,2.267,0,0,0,.169.913,1.888,1.888,0,0,0,.517.684,4.549,4.549,0,0,0,1.047.615q0.771,0.347.95,0.459a0.938,0.938,0,0,1,.259.222,0.422,0.422,0,0,1,.081.256,0.458,0.458,0,0,1-.2.383,1.062,1.062,0,0,1-.63.149A4.275,4.275,0,0,1,35,11.848a5.742,5.742,0,0,1-1.147-.442v1.719a4.434,4.434,0,0,0,1.006.349,6.028,6.028,0,0,0,1.2.1,3.6,3.6,0,0,0,1.489-.286,2.206,2.206,0,0,0,.972-0.8,2.105,2.105,0,0,0,.337-1.179A1.936,1.936,0,0,0,38.5,10.11Z"/>
</svg>
