<svg xmlns="http://www.w3.org/2000/svg" width="14" height="12" viewBox="0 0 14 12">
<defs>
    <style>
      .cls-1 {
        fill: currentColor;
        fill-rule: evenodd;
      }
    </style>
  </defs>
  <path id="tw" class="cls-1" d="M1119,1041.42a5.808,5.808,0,0,1-1.65.48,3.022,3.022,0,0,0,1.26-1.68,5.585,5.585,0,0,1-1.82.74,2.8,2.8,0,0,0-2.1-.96,2.959,2.959,0,0,0-2.87,3.03,3.841,3.841,0,0,0,.07.69,8.034,8.034,0,0,1-5.92-3.17,3.24,3.24,0,0,0-.38,1.53,3.064,3.064,0,0,0,1.27,2.52,2.771,2.771,0,0,1-1.3-.38v0.04a2.993,2.993,0,0,0,2.31,2.97,2.738,2.738,0,0,1-.76.11,2.352,2.352,0,0,1-.54-0.06,2.892,2.892,0,0,0,2.68,2.1,5.524,5.524,0,0,1-3.56,1.3,5.123,5.123,0,0,1-.69-0.04,7.815,7.815,0,0,0,4.4,1.36c5.29,0,8.18-4.62,8.18-8.62,0-.13-0.01-0.26-0.01-0.39A6.135,6.135,0,0,0,1119,1041.42Z" transform="translate(-1105 -1040)"/>
</svg>
